<svg width="212" height="28" viewBox="0 0 212 28" fill="none" xmlns="http://www.w3.org/2000/svg">
<path d="M10.7614 27H0.6875V0.818181H10.6591C13.3523 0.818181 15.679 1.34233 17.6392 2.39062C19.608 3.4304 21.125 4.9304 22.1903 6.89062C23.2642 8.84233 23.8011 11.1818 23.8011 13.9091C23.8011 16.6364 23.2685 18.9801 22.2031 20.9403C21.1378 22.892 19.6293 24.392 17.6776 25.4403C15.7259 26.4801 13.4205 27 10.7614 27ZM7.79545 20.9659H10.5057C11.8011 20.9659 12.9048 20.7571 13.8168 20.3395C14.7372 19.9219 15.4361 19.2017 15.9134 18.179C16.3991 17.1562 16.642 15.733 16.642 13.9091C16.642 12.0852 16.3949 10.6619 15.9006 9.6392C15.4148 8.61648 14.6989 7.89631 13.7528 7.47869C12.8153 7.06108 11.6648 6.85227 10.3011 6.85227H7.79545V20.9659ZM27.0898 27V0.818181H45.9592V6.54545H34.1978V11.0455H44.9876V16.7727H34.1978V21.2727H45.908V27H27.0898ZM56.6435 0.818181L62.0128 19.2784H62.2173L67.5866 0.818181H75.6151L66.973 27H57.2571L48.6151 0.818181H56.6435Z" fill="white"/>
<path d="M78.1367 27V0.818181H89.4379C91.381 0.818181 93.0813 1.2017 94.5387 1.96875C95.9961 2.73579 97.1296 3.81392 97.9393 5.20312C98.7489 6.59233 99.1538 8.21591 99.1538 10.0739C99.1538 11.9489 98.7362 13.5724 97.9009 14.9446C97.0742 16.3168 95.9109 17.3736 94.4109 18.1151C92.9194 18.8565 91.1765 19.2273 89.1822 19.2273H82.4322V13.7045H87.7504C88.5856 13.7045 89.2972 13.5597 89.8853 13.2699C90.4819 12.9716 90.9379 12.5497 91.2532 12.0043C91.5771 11.4588 91.739 10.8153 91.739 10.0739C91.739 9.32386 91.5771 8.68466 91.2532 8.15625C90.9379 7.61932 90.4819 7.21023 89.8853 6.92898C89.2972 6.6392 88.5856 6.49432 87.7504 6.49432H85.2447V27H78.1367ZM108.87 0.818181V27H101.762V0.818181H108.87ZM112.341 27V23.0625L124.716 6.54545H112.392V0.818181H133.767V4.75568L121.392 21.2727H133.716V27H112.341ZM137.337 27V23.0625L149.712 6.54545H137.388V0.818181H158.763V4.75568L146.388 21.2727H158.712V27H137.337ZM169.032 27H161.361L170.003 0.818181H179.719L188.361 27H180.691L174.963 8.02841H174.759L169.032 27ZM167.6 16.6705H182.02V21.9886H167.6V16.6705ZM203.977 9C203.909 8.14773 203.589 7.48295 203.018 7.00568C202.456 6.52841 201.599 6.28977 200.449 6.28977C199.716 6.28977 199.115 6.37926 198.646 6.55824C198.186 6.72869 197.845 6.96307 197.623 7.26136C197.402 7.55966 197.287 7.90057 197.278 8.28409C197.261 8.59943 197.316 8.88494 197.444 9.14062C197.581 9.38778 197.794 9.61364 198.083 9.81818C198.373 10.0142 198.744 10.1932 199.196 10.3551C199.647 10.517 200.184 10.6619 200.806 10.7898L202.954 11.25C204.403 11.5568 205.643 11.9616 206.674 12.4645C207.706 12.9673 208.549 13.5597 209.206 14.2415C209.862 14.9148 210.343 15.6733 210.65 16.517C210.966 17.3608 211.127 18.2812 211.136 19.2784C211.127 21 210.697 22.4574 209.845 23.6506C208.993 24.8438 207.774 25.7514 206.189 26.3736C204.612 26.9957 202.716 27.3068 200.5 27.3068C198.224 27.3068 196.238 26.9702 194.542 26.2969C192.855 25.6236 191.542 24.5881 190.605 23.1903C189.676 21.7841 189.207 19.9858 189.199 17.7955H195.949C195.991 18.5966 196.191 19.2699 196.549 19.8153C196.907 20.3608 197.41 20.7741 198.058 21.0554C198.714 21.3366 199.494 21.4773 200.397 21.4773C201.156 21.4773 201.791 21.3835 202.302 21.196C202.814 21.0085 203.201 20.7486 203.466 20.4162C203.73 20.0838 203.866 19.7045 203.875 19.2784C203.866 18.8778 203.734 18.5284 203.478 18.2301C203.231 17.9233 202.822 17.6506 202.251 17.4119C201.68 17.1648 200.909 16.9347 199.937 16.7216L197.329 16.1591C195.011 15.6562 193.183 14.8168 191.845 13.6406C190.515 12.456 189.855 10.8409 189.863 8.79545C189.855 7.13352 190.298 5.6804 191.193 4.43608C192.096 3.18324 193.345 2.20739 194.939 1.50852C196.541 0.809658 198.377 0.460226 200.449 0.460226C202.562 0.460226 204.39 0.81392 205.933 1.52131C207.475 2.22869 208.664 3.22585 209.5 4.51278C210.343 5.79119 210.77 7.28693 210.778 9H203.977Z" fill="#D30000"/>
</svg>
